<svg class="animated" id="freepik_stories-drive-in-movie-theater" xmlns="http://www.w3.org/2000/svg" viewBox="0 0 500 500" version="1.1" xmlns:xlink="http://www.w3.org/1999/xlink" xmlns:svgjs="http://svgjs.com/svgjs"><style>svg#freepik_stories-drive-in-movie-theater:not(.animated) .animable {opacity: 0;}svg#freepik_stories-drive-in-movie-theater.animated #freepik--Clouds--inject-39 {animation: 1.5s Infinite  linear floating;animation-delay: 0s;}svg#freepik_stories-drive-in-movie-theater.animated #freepik--car-1--inject-39 {animation: 1s 1 forwards cubic-bezier(.36,-0.01,.5,1.38) slideRight;animation-delay: 0s;}            @keyframes floating {                0% {                    opacity: 1;                    transform: translateY(0px);                }                50% {                    transform: translateY(-10px);                }                100% {                    opacity: 1;                    transform: translateY(0px);                }            }                    @keyframes slideRight {                0% {                    opacity: 0;                    transform: translateX(30px);                }                100% {                    opacity: 1;                    transform: translateX(0);                }            }        </style><g id="freepik--background-simple--inject-39" class="animable" style="transform-origin: 251.418px 260.583px;"><path d="M188.35,463.4C294.46,483,400.05,394.71,448.62,310.1c32.28-56.22,45.14-122.21,26.3-175.91-13.8-39.35-48.51-77.47-100.14-79.14-57.52-1.87-103.84,54.44-162.93,53.3S83,131.44,49.16,175.35s-40.73,124-12,186.09c16.4,35.42,45.44,65.76,83.19,84.17,20.75,10.11,43.16,13,66.66,17.54Z" style="fill: rgb(126, 87, 194); transform-origin: 251.418px 260.583px;" id="elep7fuun6k8s" class="animable"></path><g id="elzrfrus5snbi"><path d="M188.35,463.4C294.46,483,400.05,394.71,448.62,310.1c32.28-56.22,45.14-122.21,26.3-175.91-13.8-39.35-48.51-77.47-100.14-79.14-57.52-1.87-103.84,54.44-162.93,53.3S83,131.44,49.16,175.35s-40.73,124-12,186.09c16.4,35.42,45.44,65.76,83.19,84.17,20.75,10.11,43.16,13,66.66,17.54Z" style="fill: rgb(255, 255, 255); opacity: 0.8; transform-origin: 251.418px 260.583px;" class="animable"></path></g></g><g id="freepik--Clouds--inject-39" class="animable" style="transform-origin: 239.351px 163.346px;"><g id="elxncwz0a6ztb"><path d="M186.63,63.78S192.77,44.5,170,34.86s-59.6,4.38-57.84,14,19.28,19.28,7,20.16S99,51.51,73.57,60.28,78,80.43,71.82,80.43s-22.79-4.38-37.69,0,0,12.27,56.1,16.66,42.94-7,64-8.77,18.4,7.89,63.1,0S246.23,53.26,186.63,63.78Z" style="opacity: 0.2; transform-origin: 135.861px 64.8543px;" class="animable"></path></g><g id="el65w6e796atm"><path d="M290.34,136.62s4.34-13.67-11.8-20.5-42.24,3.11-41,9.94,13.67,13.66,5,14.28-14.28-12.42-32.29-6.21,3.1,14.29-1.25,14.29-16.14-3.11-26.7,0,0,8.69,39.75,11.8,30.43-5,45.34-6.21,13,5.59,44.71,0S332.57,129.17,290.34,136.62Z" style="opacity: 0.2; transform-origin: 254.385px 137.375px;" class="animable"></path></g><g id="el2r26d88y6r4"><path d="M437.49,287.44s1.37-4.29-3.7-6.43-13.26,1-12.87,3.11,4.29,4.29,1.56,4.49-4.48-3.9-10.13-1.95,1,4.48-.39,4.48-5.07-1-8.38,0,0,2.73,12.47,3.71,9.55-1.56,14.23-2,4.09,1.75,14,0S450.75,285.1,437.49,287.44Z" style="opacity: 0.2; transform-origin: 426.184px 287.684px;" class="animable"></path></g></g><g id="freepik--Trees--inject-39" class="animable" style="transform-origin: 371.54px 279.125px;"><path d="M383.89,249.54s30.49-15.25,55.27,8.57c.34.33.66.61,1,.93a86.52,86.52,0,0,0,33.32-68.11c0-48.16-39.68-87.2-88.63-87.2s-88.63,39-88.63,87.2a86.51,86.51,0,0,0,33.5,68.25C335.26,255.1,361.06,237.7,383.89,249.54Z" style="fill: rgb(126, 87, 194); transform-origin: 384.85px 181.455px;" id="elh18w92cc92l" class="animable"></path><g id="eltswsndgwsu"><path d="M383.89,249.54s30.49-15.25,55.27,8.57c.34.33.66.61,1,.93a86.52,86.52,0,0,0,33.32-68.11c0-48.16-39.68-87.2-88.63-87.2s-88.63,39-88.63,87.2a86.51,86.51,0,0,0,33.5,68.25C335.26,255.1,361.06,237.7,383.89,249.54Z" style="fill: rgb(255, 255, 255); opacity: 0.4; transform-origin: 384.85px 181.455px;" class="animable"></path></g><polygon points="353.27 230.91 382.39 240.68 380.98 454.52 388.22 454.52 386.64 227.17 409.17 214.65 441.46 218.3 412.54 212.78 448.05 193.06 426.29 203.69 429.55 193.37 444.2 181.81 430.49 190.41 434.6 177.41 424.99 200.56 416.94 190.83 421.43 175.77 415.54 189.15 406.06 177.69 423.82 203.39 423.03 205.29 386.53 223.13 385.65 188.66 396.55 176.08 428.56 167.81 415.56 170.06 421.7 163.15 413.1 170.48 399.34 172.86 415.12 154.64 402.6 166.7 403.59 151.35 400.64 168.59 385.51 183.17 384.84 157.09 384.38 172.74 378.94 163.5 381.01 152.29 392.62 141.19 381.6 149.06 384.94 131.04 377.17 160.5 369.84 148.06 374.84 158.06 362.16 154.09 376.25 160.88 384.26 176.89 383.52 202.26 366.69 189.29 362.49 178.88 364.36 163.42 361.06 175.22 361.31 175.94 353.93 157.66 364.3 187.45 348.44 175.22 368.44 193.28 338.29 191.41 354.8 193.77 334.45 199.37 358.95 194.36 371.65 196.17 383.38 206.77 382.54 235.69 362.77 231.29 344.05 208.15 353.99 222.16 330.88 216.38 356.65 225.91 360.03 230.68 337.74 225.71 349.45 229.63 326.22 235.04 353.27 230.91" style="fill: rgb(145, 145, 145); transform-origin: 387.135px 292.78px;" id="el6mjke1x8knj" class="animable"></polygon><path d="M331,311s21.35-10.67,38.7,6c.24.23.47.42.7.65a60.6,60.6,0,0,0,23.33-47.7c0-33.72-27.79-61.06-62.06-61.06s-62.07,27.34-62.07,61.06A60.58,60.58,0,0,0,293,317.74C296.9,314.88,315,302.7,331,311Z" style="fill: rgb(126, 87, 194); transform-origin: 331.665px 263.315px;" id="elnxzuvdw9gn" class="animable"></path><g id="elwr21y37bj8q"><path d="M331,311s21.35-10.67,38.7,6c.24.23.47.42.7.65a60.6,60.6,0,0,0,23.33-47.7c0-33.72-27.79-61.06-62.06-61.06s-62.07,27.34-62.07,61.06A60.58,60.58,0,0,0,293,317.74C296.9,314.88,315,302.7,331,311Z" style="fill: rgb(255, 255, 255); opacity: 0.2; transform-origin: 331.665px 263.315px;" class="animable"></path></g><polygon points="309.51 297.94 329.9 304.78 328.91 454.52 333.98 454.52 332.87 295.32 348.65 286.56 371.26 289.11 351.01 285.24 375.87 271.43 360.64 278.88 362.93 271.65 373.19 263.55 363.58 269.58 366.46 260.48 359.73 276.69 354.09 269.87 357.24 259.33 353.12 268.69 346.48 260.67 358.91 278.67 358.36 280 332.8 292.49 332.18 268.36 339.81 259.55 362.23 253.75 353.13 255.33 357.43 250.49 351.41 255.63 341.77 257.29 352.82 244.53 344.05 252.98 344.75 242.23 342.68 254.3 332.08 264.51 331.62 246.25 331.3 257.21 327.48 250.73 328.93 242.89 337.06 235.12 329.35 240.63 331.68 228.01 326.25 248.63 321.12 239.92 324.62 246.92 315.74 244.15 325.61 248.9 331.21 260.11 330.69 277.88 318.9 268.79 315.97 261.51 317.27 250.68 314.97 258.94 315.14 259.45 309.97 246.65 317.24 267.51 306.13 258.94 320.13 271.59 299.02 270.28 310.58 271.93 296.33 275.85 313.49 272.35 322.38 273.62 330.6 281.04 330 301.29 316.16 298.2 303.05 282 310.01 291.81 293.83 287.76 311.88 294.44 314.24 297.78 298.63 294.3 306.83 297.05 290.56 300.83 309.51 297.94" style="fill: rgb(145, 145, 145); transform-origin: 333.215px 341.265px;" id="eluoa8vstmgg" class="animable"></polygon></g><g id="freepik--Screen--inject-39" class="animable animator-active" style="transform-origin: 249.505px 313.47px;"><rect x="22.19" y="172.42" width="267.9" height="282.1" style="fill: rgb(38, 50, 56); stroke: rgb(38, 50, 56); stroke-linecap: round; stroke-linejoin: round; transform-origin: 156.14px 313.47px;" id="elugbxbkrf5o" class="animable"></rect><rect x="27.26" y="180.54" width="257.75" height="152.21" style="fill: rgb(255, 255, 255); stroke: rgb(38, 50, 56); stroke-linecap: round; stroke-linejoin: round; transform-origin: 156.135px 256.645px;" id="elb8ug197iudp" class="animable"></rect><rect x="37.9" y="192.04" width="236.46" height="129.2" style="fill: rgb(126, 87, 194); transform-origin: 156.13px 256.64px;" id="el885f865zsph" class="animable"></rect><g id="eleo395burplf"><rect x="37.9" y="192.04" width="236.46" height="129.2" style="fill: rgb(255, 255, 255); opacity: 0.7; transform-origin: 156.13px 256.64px;" class="animable"></rect></g><path d="M171.77,240.31c0,19.69-22.12,26.78-22.21,41.81v1H171v6.62H142.37v-5.6c0-21.09,22.12-25.2,22.12-43.58,0-6.72-2.24-10.27-7.65-10.27s-7.65,3.83-7.65,9.62v5.78h-6.82V240.4c0-10,4.58-16.61,14.66-16.61S171.77,230.32,171.77,240.31Z" style="fill: rgb(38, 50, 56); transform-origin: 157.07px 256.765px;" id="eleqb9tigvy1j" class="animable"></path><line x1="156.13" y1="193.08" x2="156.13" y2="321.18" style="fill: none; stroke: rgb(38, 50, 56); stroke-linecap: round; stroke-linejoin: round; transform-origin: 156.13px 257.13px;" id="el8polrnbl3c7" class="animable"></line><line x1="272.94" y1="256.64" x2="39.33" y2="256.64" style="fill: none; stroke: rgb(38, 50, 56); stroke-linecap: round; stroke-linejoin: round; transform-origin: 156.135px 256.64px;" id="ela3vs41uroz7" class="animable"></line><circle cx="155.9" cy="256.45" r="52.72" style="fill: none; stroke: rgb(38, 50, 56); stroke-linecap: round; stroke-linejoin: round; transform-origin: 155.9px 256.45px;" id="eloq9kw70fst" class="animable"></circle><circle cx="155.9" cy="256.45" r="46.13" style="fill: none; stroke: rgb(38, 50, 56); stroke-linecap: round; stroke-linejoin: round; transform-origin: 155.9px 256.45px;" id="el8b1y3mo0vm3" class="animable"></circle><path d="M254.94,454.23V423.08a6.67,6.67,0,0,0-6.67-6.66H45.13a6.66,6.66,0,0,0-6.66,6.66v31.15" style="fill: none; stroke: rgb(140, 140, 140); stroke-linecap: round; stroke-linejoin: round; transform-origin: 146.705px 435.325px;" id="elngujs0rob5" class="animable"></path><line x1="88.06" y1="416.43" x2="88.06" y2="454.52" style="fill: none; stroke: rgb(140, 140, 140); stroke-linecap: round; stroke-linejoin: round; transform-origin: 88.06px 435.475px;" id="elw7990hcbjpa" class="animable"></line><line x1="145.83" y1="416.43" x2="145.83" y2="454.52" style="fill: none; stroke: rgb(140, 140, 140); stroke-linecap: round; stroke-linejoin: round; transform-origin: 145.83px 435.475px;" id="elftl1f0sbic4" class="animable"></line><line x1="203.6" y1="416.43" x2="203.6" y2="454.52" style="fill: none; stroke: rgb(140, 140, 140); stroke-linecap: round; stroke-linejoin: round; transform-origin: 203.6px 435.475px;" id="el9z93hsocidm" class="animable"></line><line x1="12.42" y1="454.52" x2="486.59" y2="454.52" style="fill: none; stroke: rgb(38, 50, 56); stroke-linecap: round; stroke-linejoin: round; transform-origin: 249.505px 454.52px;" id="el4qu3xnphz56" class="animable"></line></g><g id="freepik--car-2--inject-39" class="animable" style="transform-origin: 361.965px 414.785px;"><path d="M467.69,375a10,10,0,0,0-7.24,3.09l-29.39,19.64h-6a1.79,1.79,0,0,0-1.79,1.79v3.34l-33.61,14.5-5.32,7.15a10.21,10.21,0,0,0-2,6.09V442.8H396c1.28,6.72,6,11.72,11.61,11.72a9.33,9.33,0,0,0,1.4-.11l.07.11h5.42c5.63,0,10.33-5,11.61-11.72H443c1.29,6.72,6,11.72,11.61,11.72a9.33,9.33,0,0,0,1.4-.11l.08.11h5.42c5.62,0,10.32-5,11.6-11.72h14V375Z" style="fill: rgb(38, 50, 56); stroke: rgb(38, 50, 56); stroke-linecap: round; stroke-linejoin: round; transform-origin: 434.725px 414.76px;" id="el57q4nm6asjr" class="animable"></path><path d="M427,423.74h-5.42l-.08.11a9.23,9.23,0,0,0-1.4-.11c-6.61,0-12,6.89-12,15.39s5.35,15.39,12,15.39a9.23,9.23,0,0,0,1.4-.11l.08.11H427c6.6,0,12-6.89,12-15.39S433.61,423.74,427,423.74Z" style="fill: rgb(38, 50, 56); stroke: rgb(38, 50, 56); stroke-linecap: round; stroke-linejoin: round; transform-origin: 423.55px 439.13px;" id="elsgy9yodmmq" class="animable"></path><path d="M316,423.74H310.6l-.08.11a9.33,9.33,0,0,0-1.4-.11c-6.61,0-12,6.89-12,15.39s5.35,15.39,12,15.39a9.33,9.33,0,0,0,1.4-.11l.08.11H316c6.6,0,12-6.89,12-15.39S322.62,423.74,316,423.74Z" style="fill: rgb(38, 50, 56); stroke: rgb(38, 50, 56); stroke-linecap: round; stroke-linejoin: round; transform-origin: 312.56px 439.13px;" id="elzz0a5uxt12i" class="animable"></path><path d="M478.57,424.19H476l-2.33-16.33a4,4,0,0,0-4-3.47H455.07l-23.66-25.11a13.55,13.55,0,0,0-9.87-4.26H358.81a10,10,0,0,0-7.24,3.09L243.82,423.6v19.2H405.37l40.54-.29,30.06-2v-.14h2.47a1,1,0,0,0,1-1V425.05A.85.85,0,0,0,478.57,424.19Z" style="fill: rgb(255, 255, 255); stroke: rgb(38, 50, 56); stroke-linecap: round; stroke-linejoin: round; transform-origin: 361.63px 408.91px;" id="elty0jxwg5x" class="animable"></path><path d="M432.68,439.85v2.76l13.23-.1,30.06-2v-.14h2.47a1,1,0,0,0,.88-.55Z" style="fill: rgb(38, 50, 56); stroke: rgb(38, 50, 56); stroke-linecap: round; stroke-linejoin: round; transform-origin: 456px 441.215px;" id="eljxtyt166uc" class="animable"></path><path d="M445.91,442.51h0a1,1,0,0,0-.07-2h-15.2L374.42,375H358.81a10,10,0,0,0-7.24,3.09L243.82,423.6v19.2H405.37Z" style="fill: rgb(38, 50, 56); stroke: rgb(38, 50, 56); stroke-linecap: round; stroke-linejoin: round; transform-origin: 345.348px 408.9px;" id="elr9gpcptju0g" class="animable"></path><path d="M269,423.74h-5.42L260,429a18.81,18.81,0,0,0,0,20.35l3.55,5.22H269c6.61,0,12-6.89,12-15.39S275.6,423.74,269,423.74Z" style="fill: rgb(38, 50, 56); stroke: rgb(38, 50, 56); stroke-linecap: round; stroke-linejoin: round; transform-origin: 269.005px 439.155px;" id="eljmnkw627j2n" class="animable"></path><ellipse cx="262.1" cy="439.13" rx="11.96" ry="15.39" style="fill: rgb(99, 99, 99); stroke: rgb(38, 50, 56); stroke-linecap: round; stroke-linejoin: round; transform-origin: 262.1px 439.13px;" id="el0o758dy1j5o" class="animable"></ellipse><ellipse cx="262.1" cy="439.13" rx="9.54" ry="12.28" style="fill: rgb(255, 255, 255); stroke: rgb(38, 50, 56); stroke-linecap: round; stroke-linejoin: round; transform-origin: 262.1px 439.13px;" id="elgm2nte827d9" class="animable"></ellipse><path d="M264.11,439.13a2.08,2.08,0,1,1-2-2.6A2.36,2.36,0,0,1,264.11,439.13Z" style="fill: rgb(255, 255, 255); stroke: rgb(38, 50, 56); stroke-linecap: round; stroke-linejoin: round; transform-origin: 262.07px 438.61px;" id="el84vgylv8ex" class="animable"></path><path d="M389.73,423.74h-5.42L380.76,429a18.81,18.81,0,0,0,0,20.35l3.55,5.22h5.42c6.6,0,12-6.89,12-15.39S396.33,423.74,389.73,423.74Z" style="fill: rgb(38, 50, 56); stroke: rgb(38, 50, 56); stroke-linecap: round; stroke-linejoin: round; transform-origin: 389.75px 439.155px;" id="elno9acmgfoyk" class="animable"></path><ellipse cx="382.83" cy="439.13" rx="11.96" ry="15.39" style="fill: rgb(99, 99, 99); stroke: rgb(38, 50, 56); stroke-linecap: round; stroke-linejoin: round; transform-origin: 382.83px 439.13px;" id="elqjhqpffhraa" class="animable"></ellipse><ellipse cx="382.83" cy="439.13" rx="9.54" ry="12.28" style="fill: rgb(255, 255, 255); stroke: rgb(38, 50, 56); stroke-linecap: round; stroke-linejoin: round; transform-origin: 382.83px 439.13px;" id="elcffx590w4j" class="animable"></ellipse><path d="M384.85,439.13a2.08,2.08,0,1,1-2-2.6A2.36,2.36,0,0,1,384.85,439.13Z" style="fill: rgb(255, 255, 255); stroke: rgb(38, 50, 56); stroke-linecap: round; stroke-linejoin: round; transform-origin: 382.811px 438.61px;" id="el0o940q1i532o" class="animable"></path><path d="M431.41,379.28c-.2-.21-.41-.4-.61-.59H381.93v24.15h71.68Z" style="fill: rgb(38, 50, 56); stroke: rgb(38, 50, 56); stroke-linecap: round; stroke-linejoin: round; transform-origin: 417.77px 390.765px;" id="el805pvz9rlmr" class="animable"></path><path d="M437,424.19h-2.85l-2.82-19.8H413.27l-23.66-25.11a13.55,13.55,0,0,0-9.87-4.26H322.16a10,10,0,0,0-7.24,3.09L278.14,402.7l-34,14.68-5.32,7.15a10.21,10.21,0,0,0-2,6.09V442.8h10.73v-4.06c0-9.92,7.22-18,16.12-18h0c7.94,0,12.86,6.43,14.1,15.17l1,6.86h89.69v-4.06c0-9.92,4.07-18,15-18h0c9.75,0,13.24,6.43,14.76,15.17l1.14,6.57,34.88-2v-.14H437Z" style="fill: rgb(255, 255, 255); stroke: rgb(38, 50, 56); stroke-linecap: round; stroke-linejoin: round; transform-origin: 336.91px 408.91px;" id="el223s5sklm30i" class="animable"></path><path d="M315.22,381.73l-31.58,21h59V379h-20.9A9.2,9.2,0,0,0,315.22,381.73Z" style="fill: rgb(38, 50, 56); stroke: rgb(38, 50, 56); stroke-linecap: round; stroke-linejoin: round; transform-origin: 313.14px 390.865px;" id="el9aj3om7zz7" class="animable"></path><path d="M308.37,402.7,327.09,379h-5.32a9.2,9.2,0,0,0-6.55,2.76l-11.05,7.33L293.42,402.7Z" style="fill: rgb(255, 255, 255); stroke: rgb(38, 50, 56); stroke-linecap: round; stroke-linejoin: round; transform-origin: 310.255px 390.85px;" id="elwegl6kbncwq" class="animable"></path><polygon points="342.67 402.7 342.67 385.66 329.23 402.7 342.67 402.7" style="fill: rgb(255, 255, 255); stroke: rgb(38, 50, 56); stroke-linecap: round; stroke-linejoin: round; transform-origin: 335.95px 394.18px;" id="elv644ish8fwg" class="animable"></polygon><path d="M387.64,382.84l13.43,13.73a3.6,3.6,0,0,1,.92,1.65h0a3.61,3.61,0,0,1-3.5,4.48H346.62V379h31.84A12.83,12.83,0,0,1,387.64,382.84Z" style="fill: rgb(38, 50, 56); stroke: rgb(38, 50, 56); stroke-linecap: round; stroke-linejoin: round; transform-origin: 374.358px 390.85px;" id="el39sclw5kx4m" class="animable"></path><polygon points="375.06 378.97 369.85 378.97 351.13 402.7 356.34 402.7 375.06 378.97" style="fill: rgb(255, 255, 255); stroke: rgb(38, 50, 56); stroke-linecap: round; stroke-linejoin: round; transform-origin: 363.095px 390.835px;" id="el2dhwqsrttb4" class="animable"></polygon><polygon points="346.62 380.65 346.62 399.6 362.9 378.97 347.95 378.97 346.62 380.65" style="fill: rgb(255, 255, 255); stroke: rgb(38, 50, 56); stroke-linecap: round; stroke-linejoin: round; transform-origin: 354.76px 389.285px;" id="elpcpyovn26k" class="animable"></polygon><path d="M431.35,404.39h38.3a4,4,0,0,1,4,3.47L476,424.19h-41.8Z" style="fill: rgb(255, 255, 255); stroke: rgb(38, 50, 56); stroke-linecap: round; stroke-linejoin: round; transform-origin: 453.675px 414.29px;" id="elfu4uqxi6qi8" class="animable"></path><rect x="449.54" y="413.32" width="18.16" height="7.46" style="fill: rgb(255, 255, 255); stroke: rgb(38, 50, 56); stroke-linecap: round; stroke-linejoin: round; transform-origin: 458.62px 417.05px;" id="eluar6031tt0o" class="animable"></rect><line x1="477.97" y1="427.24" x2="400.14" y2="427.24" style="fill: rgb(255, 255, 255); stroke: rgb(38, 50, 56); stroke-linecap: round; stroke-linejoin: round; stroke-width: 2px; transform-origin: 439.055px 427.24px;" id="elffphnh9p0tt" class="animable"></line><line x1="365.37" y1="427.24" x2="279.12" y2="427.24" style="fill: rgb(255, 255, 255); stroke: rgb(38, 50, 56); stroke-linecap: round; stroke-linejoin: round; stroke-width: 2px; transform-origin: 322.245px 427.24px;" id="elo6sz3iwrbkj" class="animable"></line><line x1="250.49" y1="427.24" x2="240.62" y2="427.24" style="fill: rgb(255, 255, 255); stroke: rgb(38, 50, 56); stroke-linecap: round; stroke-linejoin: round; stroke-width: 2px; transform-origin: 245.555px 427.24px;" id="elq7o8hnpz4yb" class="animable"></line><path d="M446.4,413.44H429.25a4.27,4.27,0,0,0-3.83,2.36l-2.87,5.74a1.73,1.73,0,0,0,1.55,2.5h22.3Z" style="fill: rgb(126, 87, 194); stroke: rgb(38, 50, 56); stroke-linecap: round; stroke-linejoin: round; transform-origin: 434.385px 418.74px;" id="elpjwjs0a8gd8" class="animable"></path><polygon points="446.4 413.44 432.57 413.44 434.09 424.04 446.4 424.04 446.4 413.44" style="fill: rgb(38, 50, 56); stroke: rgb(38, 50, 56); stroke-linecap: round; stroke-linejoin: round; transform-origin: 439.485px 418.74px;" id="eltpwgh79sdb8" class="animable"></polygon><polygon points="474.37 413.44 470.19 413.44 470.13 424.04 475.89 424.04 474.37 413.44" style="fill: rgb(38, 50, 56); stroke: rgb(38, 50, 56); stroke-linecap: round; stroke-linejoin: round; transform-origin: 473.01px 418.74px;" id="elq18w6bd254" class="animable"></polygon><rect x="277.71" y="397.75" width="11.01" height="9.32" rx="2" style="fill: rgb(38, 50, 56); stroke: rgb(38, 50, 56); stroke-linecap: round; stroke-linejoin: round; transform-origin: 283.215px 402.41px;" id="elikrg4ve88bq" class="animable"></rect><rect x="330.67" y="407.07" width="10.59" height="4.24" style="fill: rgb(38, 50, 56); stroke: rgb(38, 50, 56); stroke-linecap: round; stroke-linejoin: round; transform-origin: 335.965px 409.19px;" id="elca01d9sb1" class="animable"></rect><line x1="343.8" y1="405.38" x2="343.8" y2="437.58" style="fill: none; stroke: rgb(38, 50, 56); stroke-linecap: round; stroke-linejoin: round; transform-origin: 343.8px 421.48px;" id="el75d1yxovuu9" class="animable"></line><path d="M272.2,419.78s7.76,4.38,8.75,19.35h82.34" style="fill: none; stroke: rgb(38, 50, 56); stroke-linecap: round; stroke-linejoin: round; transform-origin: 317.745px 429.455px;" id="elb9xlt16x72" class="animable"></path><path d="M402.26,426.14s-4.06-10.59-17.63-10.59c-9.47,0-14,5-16.26,8.89" style="fill: none; stroke: rgb(38, 50, 56); stroke-linecap: round; stroke-linejoin: round; transform-origin: 385.315px 420.845px;" id="el7yxlhlsz6tx" class="animable"></path></g><g id="freepik--car-1--inject-39" class="animable" style="transform-origin: 213.12px 414.785px;"><path d="M282,423.74h-5.41l-.08.11a9.33,9.33,0,0,0-1.4-.11c-6.61,0-12,6.89-12,15.39s5.36,15.39,12,15.39a9.33,9.33,0,0,0,1.4-.11l.08.11H282c6.61,0,12-6.89,12-15.39S288.61,423.74,282,423.74Z" style="fill: rgb(38, 50, 56); stroke: rgb(38, 50, 56); stroke-linecap: round; stroke-linejoin: round; transform-origin: 278.555px 439.13px;" id="el3xa3sy8qxxo" class="animable"></path><path d="M171,423.74h-5.42l-.07.11a9.33,9.33,0,0,0-1.4-.11c-6.61,0-12,6.89-12,15.39s5.36,15.39,12,15.39a9.33,9.33,0,0,0,1.4-.11l.07.11H171c6.61,0,12-6.89,12-15.39S177.62,423.74,171,423.74Z" style="fill: rgb(38, 50, 56); stroke: rgb(38, 50, 56); stroke-linecap: round; stroke-linejoin: round; transform-origin: 167.555px 439.13px;" id="elcu4oswanoq4" class="animable"></path><path d="M333.57,424.19H331l-2.33-16.33a4,4,0,0,0-4-3.47H310.07l-23.66-25.11a13.58,13.58,0,0,0-9.87-4.26H213.81a10,10,0,0,0-7.25,3.09L98.82,423.6v19.2H260.36l40.55-.29,30.06-2v-.14h2.47a1,1,0,0,0,1-1V425.05A.86.86,0,0,0,333.57,424.19Z" style="fill: rgb(126, 87, 194); stroke: rgb(38, 50, 56); stroke-linecap: round; stroke-linejoin: round; transform-origin: 216.63px 408.91px;" id="elkze85doh4v" class="animable"></path><path d="M287.68,439.85v2.76l13.23-.1,30.06-2v-.14h2.47a1,1,0,0,0,.88-.55Z" style="fill: rgb(38, 50, 56); stroke: rgb(38, 50, 56); stroke-linecap: round; stroke-linejoin: round; transform-origin: 311px 441.215px;" id="ela10oma3g2wa" class="animable"></path><path d="M300.91,442.51h0a1,1,0,0,0-.07-2h-15.2L229.42,375H213.81a10,10,0,0,0-7.25,3.09L98.82,423.6v19.2H260.36Z" style="fill: rgb(38, 50, 56); stroke: rgb(38, 50, 56); stroke-linecap: round; stroke-linejoin: round; transform-origin: 200.348px 408.9px;" id="elcy8u8hbumui" class="animable"></path><path d="M124,423.74h-5.42L115,429a18.81,18.81,0,0,0,0,20.35l3.55,5.22H124c6.61,0,12-6.89,12-15.39S130.6,423.74,124,423.74Z" style="fill: rgb(38, 50, 56); stroke: rgb(38, 50, 56); stroke-linecap: round; stroke-linejoin: round; transform-origin: 124.005px 439.155px;" id="eliptrobkt6y" class="animable"></path><ellipse cx="117.09" cy="439.13" rx="11.96" ry="15.39" style="fill: rgb(99, 99, 99); stroke: rgb(38, 50, 56); stroke-linecap: round; stroke-linejoin: round; transform-origin: 117.09px 439.13px;" id="elqgtouln3akr" class="animable"></ellipse><ellipse cx="117.09" cy="439.13" rx="9.54" ry="12.28" style="fill: rgb(255, 255, 255); stroke: rgb(38, 50, 56); stroke-linecap: round; stroke-linejoin: round; transform-origin: 117.09px 439.13px;" id="eljmjj42buf98" class="animable"></ellipse><path d="M119.11,439.13a2.08,2.08,0,1,1-2-2.6A2.36,2.36,0,0,1,119.11,439.13Z" style="fill: rgb(255, 255, 255); stroke: rgb(38, 50, 56); stroke-linecap: round; stroke-linejoin: round; transform-origin: 117.071px 438.61px;" id="el08llev4hddt9" class="animable"></path><path d="M244.72,423.74h-5.41L235.75,429a18.81,18.81,0,0,0,0,20.35l3.56,5.22h5.41c6.61,0,12-6.89,12-15.39S251.33,423.74,244.72,423.74Z" style="fill: rgb(38, 50, 56); stroke: rgb(38, 50, 56); stroke-linecap: round; stroke-linejoin: round; transform-origin: 244.74px 439.155px;" id="elip3yprmyu7k" class="animable"></path><ellipse cx="237.83" cy="439.13" rx="11.96" ry="15.39" style="fill: rgb(99, 99, 99); stroke: rgb(38, 50, 56); stroke-linecap: round; stroke-linejoin: round; transform-origin: 237.83px 439.13px;" id="els324cg673qp" class="animable"></ellipse><ellipse cx="237.83" cy="439.13" rx="9.54" ry="12.28" style="fill: rgb(255, 255, 255); stroke: rgb(38, 50, 56); stroke-linecap: round; stroke-linejoin: round; transform-origin: 237.83px 439.13px;" id="elxktyiptc55s" class="animable"></ellipse><path d="M239.84,439.13a2.08,2.08,0,1,1-2-2.6A2.36,2.36,0,0,1,239.84,439.13Z" style="fill: rgb(255, 255, 255); stroke: rgb(38, 50, 56); stroke-linecap: round; stroke-linejoin: round; transform-origin: 237.801px 438.61px;" id="elh1fhqbsc3hs" class="animable"></path><path d="M286.41,379.28c-.2-.21-.41-.4-.62-.59H236.92v24.15h71.69Z" style="fill: rgb(38, 50, 56); stroke: rgb(38, 50, 56); stroke-linecap: round; stroke-linejoin: round; transform-origin: 272.765px 390.765px;" id="elwgjls72kgob" class="animable"></path><path d="M292,424.19h-2.85l-2.82-19.8H268.27l-23.66-25.11a13.55,13.55,0,0,0-9.87-4.26H177.16a10,10,0,0,0-7.25,3.09L133.13,402.7l-34,14.68-5.33,7.15a10.2,10.2,0,0,0-2,6.09V442.8h10.73v-4.06c0-9.92,7.22-18,16.12-18h0c7.93,0,12.86,6.43,14.1,15.17l1,6.86h89.69v-4.06c0-9.92,4.07-18,15-18h0c9.75,0,13.24,6.43,14.76,15.17l1.14,6.57,34.88-2v-.14H292Z" style="fill: rgb(126, 87, 194); stroke: rgb(38, 50, 56); stroke-linecap: round; stroke-linejoin: round; transform-origin: 191.9px 408.91px;" id="elo9alcxk9sed" class="animable"></path><path d="M170.22,381.73l-31.58,21h59V379h-20.9A9.16,9.16,0,0,0,170.22,381.73Z" style="fill: rgb(38, 50, 56); stroke: rgb(38, 50, 56); stroke-linecap: round; stroke-linejoin: round; transform-origin: 168.14px 390.865px;" id="elcc6pwj3w80m" class="animable"></path><path d="M163.36,402.7,182.08,379h-5.31a9.16,9.16,0,0,0-6.55,2.76l-11.05,7.33L148.41,402.7Z" style="fill: rgb(255, 255, 255); stroke: rgb(38, 50, 56); stroke-linecap: round; stroke-linejoin: round; transform-origin: 165.245px 390.85px;" id="elkigwiwx9ji" class="animable"></path><polygon points="197.66 402.7 197.66 385.66 184.22 402.7 197.66 402.7" style="fill: rgb(255, 255, 255); stroke: rgb(38, 50, 56); stroke-linecap: round; stroke-linejoin: round; transform-origin: 190.94px 394.18px;" id="elporzv11fwqe" class="animable"></polygon><path d="M242.64,382.84l13.43,13.73a3.7,3.7,0,0,1,.92,1.65h0a3.62,3.62,0,0,1-3.5,4.48H201.62V379h31.84A12.86,12.86,0,0,1,242.64,382.84Z" style="fill: rgb(38, 50, 56); stroke: rgb(38, 50, 56); stroke-linecap: round; stroke-linejoin: round; transform-origin: 229.357px 390.85px;" id="elwctr7lmlsga" class="animable"></path><polygon points="230.06 378.97 224.85 378.97 206.13 402.7 211.34 402.7 230.06 378.97" style="fill: rgb(255, 255, 255); stroke: rgb(38, 50, 56); stroke-linecap: round; stroke-linejoin: round; transform-origin: 218.095px 390.835px;" id="elw22fh1efldb" class="animable"></polygon><polygon points="201.62 380.65 201.62 399.6 217.89 378.97 202.94 378.97 201.62 380.65" style="fill: rgb(255, 255, 255); stroke: rgb(38, 50, 56); stroke-linecap: round; stroke-linejoin: round; transform-origin: 209.755px 389.285px;" id="elxvtmuarvd6f" class="animable"></polygon><path d="M286.35,404.39h38.29a4,4,0,0,1,4,3.47L331,424.19h-41.8Z" style="fill: rgb(126, 87, 194); stroke: rgb(38, 50, 56); stroke-linecap: round; stroke-linejoin: round; transform-origin: 308.675px 414.29px;" id="el9s09luh66o9" class="animable"></path><rect x="304.54" y="413.32" width="18.16" height="7.46" style="fill: rgb(255, 255, 255); stroke: rgb(38, 50, 56); stroke-linecap: round; stroke-linejoin: round; transform-origin: 313.62px 417.05px;" id="elg51ihc9xscm" class="animable"></rect><line x1="332.97" y1="427.24" x2="255.14" y2="427.24" style="fill: rgb(255, 255, 255); stroke: rgb(38, 50, 56); stroke-linecap: round; stroke-linejoin: round; stroke-width: 2px; transform-origin: 294.055px 427.24px;" id="eli1lma68vda" class="animable"></line><line x1="220.36" y1="427.24" x2="134.12" y2="427.24" style="fill: rgb(255, 255, 255); stroke: rgb(38, 50, 56); stroke-linecap: round; stroke-linejoin: round; stroke-width: 2px; transform-origin: 177.24px 427.24px;" id="elajjwjpc7uhf" class="animable"></line><line x1="105.48" y1="427.24" x2="95.61" y2="427.24" style="fill: rgb(255, 255, 255); stroke: rgb(38, 50, 56); stroke-linecap: round; stroke-linejoin: round; stroke-width: 2px; transform-origin: 100.545px 427.24px;" id="elwjbgs9x1yrq" class="animable"></line><path d="M301.4,413.44H284.24a4.26,4.26,0,0,0-3.82,2.36l-2.87,5.74a1.72,1.72,0,0,0,1.54,2.5H301.4Z" style="fill: rgb(126, 87, 194); stroke: rgb(38, 50, 56); stroke-linecap: round; stroke-linejoin: round; transform-origin: 289.381px 418.74px;" id="elfm1nidnopm9" class="animable"></path><polygon points="301.4 413.44 287.57 413.44 289.08 424.04 301.4 424.04 301.4 413.44" style="fill: rgb(38, 50, 56); stroke: rgb(38, 50, 56); stroke-linecap: round; stroke-linejoin: round; transform-origin: 294.485px 418.74px;" id="eleph0pyfun59" class="animable"></polygon><polygon points="329.37 413.44 325.18 413.44 325.13 424.04 330.88 424.04 329.37 413.44" style="fill: rgb(38, 50, 56); stroke: rgb(38, 50, 56); stroke-linecap: round; stroke-linejoin: round; transform-origin: 328.005px 418.74px;" id="el63d1vszc2xy" class="animable"></polygon><rect x="132.71" y="397.75" width="11.01" height="9.32" rx="2" style="fill: rgb(38, 50, 56); stroke: rgb(38, 50, 56); stroke-linecap: round; stroke-linejoin: round; transform-origin: 138.215px 402.41px;" id="elpwi82fohcca" class="animable"></rect><rect x="185.66" y="407.07" width="10.59" height="4.24" style="fill: rgb(38, 50, 56); stroke: rgb(38, 50, 56); stroke-linecap: round; stroke-linejoin: round; transform-origin: 190.955px 409.19px;" id="elv46c95k49dh" class="animable"></rect><line x1="198.8" y1="405.38" x2="198.8" y2="437.58" style="fill: none; stroke: rgb(38, 50, 56); stroke-linecap: round; stroke-linejoin: round; transform-origin: 198.8px 421.48px;" id="elplzm29oj0bi" class="animable"></line><path d="M127.2,419.78s7.76,4.38,8.75,19.35h82.33" style="fill: none; stroke: rgb(38, 50, 56); stroke-linecap: round; stroke-linejoin: round; transform-origin: 172.74px 429.455px;" id="elwah5qixmzdm" class="animable"></path><path d="M257.26,426.14s-4.06-10.59-17.64-10.59c-9.46,0-14,5-16.25,8.89" style="fill: none; stroke: rgb(38, 50, 56); stroke-linecap: round; stroke-linejoin: round; transform-origin: 240.315px 420.845px;" id="eln40s6lso9f" class="animable"></path><rect x="118.26" y="394.92" width="8.51" height="11.92" rx="2.62" style="fill: rgb(255, 255, 255); stroke: rgb(38, 50, 56); stroke-linecap: round; stroke-linejoin: round; transform-origin: 122.515px 400.88px;" id="elcg5ppfaymk" class="animable"></rect><rect x="118.81" y="396.2" width="4.26" height="58.32" style="fill: rgb(255, 255, 255); stroke: rgb(38, 50, 56); stroke-linecap: round; stroke-linejoin: round; transform-origin: 120.94px 425.36px;" id="elrt8erxzoo6" class="animable"></rect><rect x="114.01" y="394.92" width="8.51" height="11.92" rx="2.62" style="fill: rgb(255, 255, 255); stroke: rgb(38, 50, 56); stroke-linecap: round; stroke-linejoin: round; transform-origin: 118.265px 400.88px;" id="eln0isiu6tlwl" class="animable"></rect></g><defs>     <filter id="active" height="200%">         <feMorphology in="SourceAlpha" result="DILATED" operator="dilate" radius="2"></feMorphology>                <feFlood flood-color="#32DFEC" flood-opacity="1" result="PINK"></feFlood>        <feComposite in="PINK" in2="DILATED" operator="in" result="OUTLINE"></feComposite>        <feMerge>            <feMergeNode in="OUTLINE"></feMergeNode>            <feMergeNode in="SourceGraphic"></feMergeNode>        </feMerge>    </filter>    <filter id="hover" height="200%">        <feMorphology in="SourceAlpha" result="DILATED" operator="dilate" radius="2"></feMorphology>                <feFlood flood-color="#ff0000" flood-opacity="0.5" result="PINK"></feFlood>        <feComposite in="PINK" in2="DILATED" operator="in" result="OUTLINE"></feComposite>        <feMerge>            <feMergeNode in="OUTLINE"></feMergeNode>            <feMergeNode in="SourceGraphic"></feMergeNode>        </feMerge>            <feColorMatrix type="matrix" values="0   0   0   0   0                0   1   0   0   0                0   0   0   0   0                0   0   0   1   0 "></feColorMatrix>    </filter></defs></svg>